<svg width="41" height="41" viewBox="0 0 41 41" fill="none" xmlns="http://www.w3.org/2000/svg">
<path fill-rule="evenodd" clip-rule="evenodd" d="M34.8993 12.0261C38.1409 12.0261 40.7688 9.39824 40.7688 6.15661C40.7688 2.91497 38.1409 0.287109 34.8993 0.287109C31.6576 0.287109 29.0298 2.91497 29.0298 6.15661C29.0298 9.39824 31.6576 12.0261 34.8993 12.0261Z" fill="#8055FA"/>
<path fill-rule="evenodd" clip-rule="evenodd" d="M34.8993 26.109C38.1409 26.109 40.7688 23.4815 40.7688 20.2403C40.7688 16.9991 38.1409 14.3716 34.8993 14.3716C31.6576 14.3716 29.0298 16.9991 29.0298 20.2403C29.0298 23.4815 31.6576 26.109 34.8993 26.109Z" fill="#7550FB"/>
<path fill-rule="evenodd" clip-rule="evenodd" d="M34.8993 40.7175C38.1409 40.7175 40.7688 38.0896 40.7688 34.848C40.7688 31.6064 38.1409 28.9785 34.8993 28.9785C31.6576 28.9785 29.0298 31.6064 29.0298 34.848C29.0298 38.0896 31.6576 40.7175 34.8993 40.7175Z" fill="#4A3AFF"/>
<path fill-rule="evenodd" clip-rule="evenodd" d="M20.2916 26.1085C23.5328 26.1085 26.1603 23.481 26.1603 20.2398C26.1603 16.9986 23.5328 14.3711 20.2916 14.3711C17.0504 14.3711 14.4229 16.9986 14.4229 20.2398C14.4229 23.481 17.0504 26.1085 20.2916 26.1085Z" fill="#4A3AFF"/>
<path fill-rule="evenodd" clip-rule="evenodd" d="M20.2911 40.717C23.5323 40.717 26.1598 38.0892 26.1598 34.8475C26.1598 31.6059 23.5323 28.978 20.2911 28.978C17.0499 28.978 14.4224 31.6059 14.4224 34.8475C14.4224 38.0892 17.0499 40.717 20.2911 40.717Z" fill="#4A3AFF"/>
<path fill-rule="evenodd" clip-rule="evenodd" d="M6.20739 40.717C9.44903 40.717 12.0769 38.0892 12.0769 34.8475C12.0769 31.6059 9.44903 28.978 6.20739 28.978C2.96575 28.978 0.337891 31.6059 0.337891 34.8475C0.337891 38.0892 2.96575 40.717 6.20739 40.717Z" fill="#4A3AFF"/>
</svg>
